<?xml version="1.0" encoding="utf-8"?>
<!-- Generator: Adobe Illustrator 24.3.0, SVG Export Plug-In . SVG Version: 6.00 Build 0)  -->
<svg version="1.1" id="Layer_1" xmlns="http://www.w3.org/2000/svg" xmlns:xlink="http://www.w3.org/1999/xlink" x="0px" y="0px"
	 viewBox="0 0 877.11 110.84" style="enable-background:new 0 0 877.11 110.84;" xml:space="preserve">
<style type="text/css">
	.st0{fill:#333333;}
	.st1{fill:#3989A1;}
	.st2{fill:#32C0C7;}
</style>
<g>
	<g>
		<path class="st0" d="M150.04,49.12l-0.25,3.02l1.43-1.93l22.93-24.61h12.6l-25.28,26.71l26.21,34.44h-12.43l-20.92-28.22
			l-4.28,4.12v24.11h-9.91V25.6h9.91V49.12z"/>
		<path class="st0" d="M215.31,25.6c3.36,0,6.43,0.45,9.2,1.34c2.77,0.9,5.15,2.17,7.14,3.82c1.99,1.65,3.51,3.68,4.58,6.09
			c1.06,2.41,1.6,5.21,1.6,8.4c0,2.41-0.36,4.82-1.09,7.22c-0.73,2.41-1.92,4.59-3.57,6.55c-1.65,1.96-3.82,3.53-6.51,4.7
			c-2.69,1.18-5.99,1.76-9.91,1.76h-8.9v21.25H198V25.6H215.31z M216.57,56.01c2.13,0,3.92-0.34,5.38-1.01
			c1.46-0.67,2.6-1.54,3.44-2.6c0.84-1.06,1.44-2.2,1.81-3.4c0.36-1.2,0.55-2.34,0.55-3.4c0-1.01-0.17-2.11-0.5-3.32
			c-0.34-1.2-0.91-2.37-1.72-3.49c-0.81-1.12-1.92-2.03-3.32-2.73c-1.4-0.7-3.16-1.05-5.29-1.05h-9.07v21H216.57z M227.15,61.97
			l15.62,24.78h-11.42l-15.88-24.53L227.15,61.97z"/>
		<path class="st0" d="M254.28,86.75V23.41h0.08l32.93,46.62l-4.2-0.92l32.76-45.7h0.17v63.34h-9.74V45.51l0.59,4.96l-22.09,31.33
			h-0.17l-22.51-31.33l1.68-4.54v40.82H254.28z"/>
		<path class="st0" d="M405.06,81.96c-0.84,0.67-2.16,1.44-3.95,2.31c-1.79,0.87-3.91,1.63-6.34,2.27
			c-2.44,0.64-5.14,0.94-8.11,0.88c-4.76-0.06-9.03-0.91-12.81-2.56c-3.78-1.65-7-3.89-9.66-6.72c-2.66-2.83-4.7-6.08-6.13-9.74
			c-1.43-3.67-2.14-7.6-2.14-11.8c0-4.54,0.73-8.75,2.18-12.64c1.46-3.89,3.53-7.25,6.22-10.08c2.69-2.83,5.88-5.03,9.58-6.59
			c3.7-1.57,7.76-2.35,12.18-2.35c3.81,0,7.24,0.52,10.29,1.55c3.05,1.04,5.61,2.23,7.69,3.57l-3.86,9.16
			c-1.57-1.18-3.53-2.28-5.88-3.32c-2.35-1.04-5.01-1.55-7.98-1.55c-2.69,0-5.25,0.55-7.69,1.64c-2.44,1.09-4.59,2.63-6.47,4.62
			c-1.88,1.99-3.36,4.31-4.45,6.97c-1.09,2.66-1.64,5.5-1.64,8.53c0,3.14,0.49,6.06,1.47,8.78c0.98,2.72,2.38,5.05,4.2,7.01
			c1.82,1.96,3.99,3.47,6.51,4.54c2.52,1.06,5.38,1.6,8.57,1.6c3.19,0,5.98-0.49,8.36-1.47c2.38-0.98,4.3-2.08,5.75-3.32
			L405.06,81.96z"/>
		<path class="st0" d="M414.3,56.26c0-4.2,0.81-8.19,2.44-11.97c1.62-3.78,3.86-7.13,6.72-10.04c2.86-2.91,6.16-5.19,9.91-6.85
			c3.75-1.65,7.81-2.48,12.18-2.48c4.25,0,8.27,0.83,12.05,2.48c3.78,1.65,7.13,3.94,10.04,6.85c2.91,2.91,5.18,6.26,6.8,10.04
			c1.62,3.78,2.44,7.77,2.44,11.97c0,4.31-0.81,8.35-2.44,12.1c-1.63,3.75-3.91,7.07-6.85,9.95c-2.94,2.88-6.29,5.12-10.04,6.72
			c-3.75,1.6-7.78,2.39-12.1,2.39c-4.31,0-8.35-0.8-12.1-2.39c-3.75-1.6-7.06-3.81-9.91-6.64c-2.86-2.83-5.1-6.13-6.72-9.91
			C415.11,64.7,414.3,60.63,414.3,56.26z M424.38,56.17c0,3.08,0.55,5.94,1.64,8.57c1.09,2.63,2.62,4.94,4.58,6.93
			c1.96,1.99,4.24,3.54,6.85,4.66c2.6,1.12,5.39,1.68,8.36,1.68c2.97,0,5.73-0.56,8.27-1.68c2.55-1.12,4.76-2.67,6.64-4.66
			c1.88-1.99,3.36-4.3,4.45-6.93c1.09-2.63,1.64-5.46,1.64-8.48c0-3.08-0.56-5.94-1.68-8.57c-1.12-2.63-2.63-4.96-4.54-6.97
			c-1.9-2.02-4.15-3.58-6.72-4.7c-2.58-1.12-5.35-1.68-8.32-1.68c-2.97,0-5.74,0.57-8.32,1.72c-2.58,1.15-4.83,2.72-6.76,4.7
			c-1.93,1.99-3.43,4.31-4.49,6.97C424.91,50.39,424.38,53.21,424.38,56.17z"/>
		<path class="st0" d="M489.9,86.75V23.41h0.08l32.93,46.62l-4.2-0.92l32.76-45.7h0.17v63.34h-9.74V45.51l0.59,4.96l-22.09,31.33
			h-0.17l-22.51-31.33l1.68-4.54v40.82H489.9z"/>
		<path class="st0" d="M568.44,86.75V23.41h0.08l32.93,46.62l-4.2-0.92l32.76-45.7h0.17v63.34h-9.74V45.51l0.59,4.96l-22.09,31.33
			h-0.17l-22.51-31.33l1.68-4.54v40.82H568.44z"/>
		<path class="st0" d="M646.98,25.6h40.57v9.41h-30.74v16.3h27.38v9.41h-27.38v16.63h31.92v9.41h-41.75V25.6z"/>
		<path class="st0" d="M719.56,25.6c3.36,0,6.43,0.45,9.2,1.34c2.77,0.9,5.15,2.17,7.14,3.82c1.99,1.65,3.51,3.68,4.58,6.09
			c1.06,2.41,1.6,5.21,1.6,8.4c0,2.41-0.36,4.82-1.09,7.22c-0.73,2.41-1.92,4.59-3.57,6.55c-1.65,1.96-3.82,3.53-6.51,4.7
			c-2.69,1.18-5.99,1.76-9.91,1.76h-8.9v21.25h-9.83V25.6H719.56z M720.82,56.01c2.13,0,3.92-0.34,5.38-1.01
			c1.46-0.67,2.6-1.54,3.44-2.6c0.84-1.06,1.44-2.2,1.81-3.4c0.36-1.2,0.55-2.34,0.55-3.4c0-1.01-0.17-2.11-0.5-3.32
			c-0.34-1.2-0.91-2.37-1.72-3.49c-0.81-1.12-1.92-2.03-3.32-2.73c-1.4-0.7-3.16-1.05-5.29-1.05h-9.07v21H720.82z M731.4,61.97
			l15.62,24.78H735.6l-15.88-24.53L731.4,61.97z"/>
		<path class="st0" d="M802.21,81.96c-0.84,0.67-2.16,1.44-3.95,2.31c-1.79,0.87-3.91,1.63-6.34,2.27
			c-2.44,0.64-5.14,0.94-8.11,0.88c-4.76-0.06-9.03-0.91-12.81-2.56c-3.78-1.65-7-3.89-9.66-6.72c-2.66-2.83-4.7-6.08-6.13-9.74
			c-1.43-3.67-2.14-7.6-2.14-11.8c0-4.54,0.73-8.75,2.18-12.64c1.46-3.89,3.53-7.25,6.22-10.08c2.69-2.83,5.88-5.03,9.58-6.59
			c3.7-1.57,7.76-2.35,12.18-2.35c3.81,0,7.24,0.52,10.29,1.55c3.05,1.04,5.61,2.23,7.69,3.57l-3.86,9.16
			c-1.57-1.18-3.53-2.28-5.88-3.32c-2.35-1.04-5.01-1.55-7.98-1.55c-2.69,0-5.25,0.55-7.69,1.64c-2.44,1.09-4.59,2.63-6.47,4.62
			c-1.88,1.99-3.36,4.31-4.45,6.97c-1.09,2.66-1.64,5.5-1.64,8.53c0,3.14,0.49,6.06,1.47,8.78c0.98,2.72,2.38,5.05,4.2,7.01
			c1.82,1.96,3.99,3.47,6.51,4.54c2.52,1.06,5.38,1.6,8.57,1.6c3.19,0,5.98-0.49,8.36-1.47c2.38-0.98,4.3-2.08,5.75-3.32
			L802.21,81.96z"/>
		<path class="st0" d="M815.23,25.6h40.57v9.41h-30.74v16.3h27.38v9.41h-27.38v16.63h31.92v9.41h-41.75V25.6z"/>
	</g>
	<rect x="20.13" y="23.41" class="st0" width="100" height="13.75"/>
	<rect x="40.13" y="47.05" class="st1" width="80" height="13.75"/>
	<rect x="60.13" y="73" class="st2" width="60" height="13.75"/>
</g>
</svg>
